<svg class="railroad-diagram" width="1098" height="212" viewBox="0 0 1098 212">
<g transform="translate(.5 .5)">
<g>
<path d="M20 21v20m10 -20v20m-10 -10h20"></path>
</g>
<path d="M40 31h10"></path>
<g>
<path d="M50 31h0"></path>
<path d="M430.5 31h0"></path>
<g class="non-terminal">
<path d="M50 31h0"></path>
<path d="M138 31h0"></path>
<rect x="50" y="20" width="88" height="22"></rect>
<text x="94" y="35">mettleci</text>
</g>
<path d="M138 31h10"></path>
<path d="M148 31h10"></path>
<g class="non-terminal">
<path d="M158 31h0"></path>
<path d="M254.5 31h0"></path>
<rect x="158" y="20" width="96.5" height="22"></rect>
<text x="206.25" y="35">datastage</text>
</g>
<path d="M254.5 31h10"></path>
<path d="M264.5 31h10"></path>
<g class="non-terminal">
<path d="M274.5 31h0"></path>
<path d="M430.5 31h0"></path>
<rect x="274.5" y="20" width="156" height="22"></rect>
<text x="352.5" y="35">cleanup&#95;projects</text>
</g>
</g>
<path d="M430.5 31h10"></path>
<g>
<path d="M440.5 31h0"></path>
<path d="M1058 31h0"></path>
<path d="M440.5 31h20"></path>
<g class="terminal">
<path d="M460.5 31h261.75"></path>
<path d="M776.25 31h261.75"></path>
<rect x="722.25" y="20" width="54" height="22" rx="10" ry="10"></rect>
<text x="749.25" y="35">help</text>
</g>
<path d="M1038 31h20"></path>
<path d="M440.5 31a10 10 0 0 1 10 10v10a10 10 0 0 0 10 10"></path>
<g>
<path d="M460.5 61h0"></path>
<path d="M1038 61h0"></path>
<g>
<path d="M460.5 61h0"></path>
<path d="M760.5 61h0"></path>
<path d="M490.5 61h10"></path>
<g>
<path d="M500.5 61h21.25"></path>
<path d="M709.25 61h21.25"></path>
<g class="non-terminal">
<path d="M521.75 61h0"></path>
<path d="M601.25 61h0"></path>
<rect x="521.75" y="50" width="79.5" height="22"></rect>
<text x="561.5" y="65">-domain</text>
</g>
<path d="M601.25 61h10"></path>
<path d="M611.25 61h10"></path>
<g class="terminal">
<path d="M621.25 61h0"></path>
<path d="M709.25 61h0"></path>
<rect x="621.25" y="50" width="88" height="22" rx="10" ry="10"></rect>
<text x="665.25" y="65">{domain}</text>
</g>
</g>
<path d="M730.5 61h10"></path>
<path d="M490.5 61v20a10 10 0 0 0 10 10"></path>
<g>
<path d="M500.5 91h0"></path>
<path d="M730.5 91h0"></path>
<g class="non-terminal">
<path d="M500.5 91h0"></path>
<path d="M580 91h0"></path>
<rect x="500.5" y="80" width="79.5" height="22"></rect>
<text x="540.25" y="95">-server</text>
</g>
<path d="M580 91h10"></path>
<path d="M590 91h10"></path>
<g class="terminal">
<path d="M600 91h0"></path>
<path d="M730.5 91h0"></path>
<rect x="600" y="80" width="130.5" height="22" rx="10" ry="10"></rect>
<text x="665.25" y="95">{engine tier}</text>
</g>
</g>
<path d="M730.5 91a10 10 0 0 0 10 -10v-20"></path>
<path d="M490.5 61v50a10 10 0 0 0 10 10"></path>
<g>
<path d="M500.5 121h21.25"></path>
<path d="M709.25 121h21.25"></path>
<g class="non-terminal">
<path d="M521.75 121h0"></path>
<path d="M618.25 121h0"></path>
<rect x="521.75" y="110" width="96.5" height="22"></rect>
<text x="570" y="125">-username</text>
</g>
<path d="M618.25 121h10"></path>
<path d="M628.25 121h10"></path>
<g class="terminal">
<path d="M638.25 121h0"></path>
<path d="M709.25 121h0"></path>
<rect x="638.25" y="110" width="71" height="22" rx="10" ry="10"></rect>
<text x="673.75" y="125">{user}</text>
</g>
</g>
<path d="M730.5 121a10 10 0 0 0 10 -10v-50"></path>
<path d="M490.5 61v80a10 10 0 0 0 10 10"></path>
<g>
<path d="M500.5 151h4.25"></path>
<path d="M726.25 151h4.25"></path>
<g class="non-terminal">
<path d="M504.75 151h0"></path>
<path d="M601.25 151h0"></path>
<rect x="504.75" y="140" width="96.5" height="22"></rect>
<text x="553" y="155">-password</text>
</g>
<path d="M601.25 151h10"></path>
<path d="M611.25 151h10"></path>
<g class="terminal">
<path d="M621.25 151h0"></path>
<path d="M726.25 151h0"></path>
<rect x="621.25" y="140" width="105" height="22" rx="10" ry="10"></rect>
<text x="673.75" y="155">{password}</text>
</g>
</g>
<path d="M730.5 151a10 10 0 0 0 10 -10v-80"></path>
<path d="M490.5 61v110a10 10 0 0 0 10 10"></path>
<g>
<path d="M500.5 181h12.75"></path>
<path d="M717.75 181h12.75"></path>
<g class="non-terminal">
<path d="M513.25 181h0"></path>
<path d="M601.25 181h0"></path>
<rect x="513.25" y="170" width="88" height="22"></rect>
<text x="557.25" y="185">-pattern</text>
</g>
<path d="M601.25 181h10"></path>
<path d="M611.25 181h10"></path>
<g class="terminal">
<path d="M621.25 181h0"></path>
<path d="M717.75 181h0"></path>
<rect x="621.25" y="170" width="96.5" height="22" rx="10" ry="10"></rect>
<text x="669.5" y="185">{pattern}</text>
</g>
</g>
<path d="M730.5 181a10 10 0 0 0 10 -10v-110"></path>
<g class="diagram-text">
<title>take all branches, once each, in any order</title>
<path d="M 490.5 51 h -26 a 4 4 0 0 0 -4 4 v 12 a 4 4 0 0 0 4 4 h 26 z" class="diagram-text"></path>
<text x="475.5" y="65" class="diagram-text">all</text>
<path d="M 740.5 51 h 16 a 4 4 0 0 1 4 4 v 12 a 4 4 0 0 1 -4 4 h -16 z" class="diagram-text"></path>
<path d="M 747.5 59 a 4 4 0 1 0 6 -1 m 2.75 -1 h -4 v 4 m 0 -3 h 2" style="stroke-width: 1.75"></path>
</g>
</g>
<path d="M760.5 61h10"></path>
<g>
<path d="M770.5 61h0"></path>
<path d="M1038 61h0"></path>
<path d="M770.5 61h20"></path>
<g>
<path d="M790.5 61h227.5"></path>
</g>
<path d="M1018 61h20"></path>
<path d="M770.5 61a10 10 0 0 1 10 10v0a10 10 0 0 0 10 10"></path>
<g>
<path d="M790.5 81h0"></path>
<path d="M1018 81h0"></path>
<path d="M790.5 81h20"></path>
<g>
<path d="M810.5 81h0"></path>
<path d="M998 81h0"></path>
<g class="non-terminal">
<path d="M810.5 81h0"></path>
<path d="M890 81h0"></path>
<rect x="810.5" y="70" width="79.5" height="22"></rect>
<text x="850.25" y="85">-retain</text>
</g>
<path d="M890 81h10"></path>
<path d="M900 81h10"></path>
<g class="terminal">
<path d="M910 81h0"></path>
<path d="M998 81h0"></path>
<rect x="910" y="70" width="88" height="22" rx="10" ry="10"></rect>
<text x="954" y="85">{number}</text>
</g>
</g>
<path d="M998 81h20"></path>
</g>
<path d="M1018 81a10 10 0 0 0 10 -10v0a10 10 0 0 1 10 -10"></path>
</g>
</g>
<path d="M1038 61a10 10 0 0 0 10 -10v-10a10 10 0 0 1 10 -10"></path>
</g>
<path d="M 1058 31 h 20 m -10 -10 v 20 m 10 -20 v 20"></path>
</g>
</svg>
