<svg xmlns="http://www.w3.org/2000/svg" xmlns:xlink="http://www.w3.org/1999/xlink" xml:space="preserve" version="1.1" shape-rendering="geometricPrecision" text-rendering="geometricPrecision" image-rendering="optimizeQuality" fill-rule="evenodd" clip-rule="evenodd" viewBox="0 0 10000000 12500000" x="0px" y="0px"><g><path fill="black" d="M1520799 9059126l0 -8118134 5218860 -118 1739542 1739659 0 6378475 -6958402 118zm6477689 -6140953l-1508634 -1502138 -4481846 -6496 0 7180922 5983984 0 6496 -5672288z"/><g><path fill="black" d="M5567878 5754258l-1132922 0 0 -1510524 1132922 118 0 1510524 0 -118zm-377601 -1132804l-377601 0 0 755084 377601 119 0 -755203 0 0z"/><polygon fill="black" points="5190277,3488413 5567878,3488413 5567878,3866133 4434956,3866133 4434956,3488413 4812676,3488413 4812676,2733210 4434956,2733210 4434956,2355609 5190277,2355609 "/><polygon fill="black" points="3679635,5376657 4057237,5376657 4057237,5754376 2924432,5754258 2924432,5376538 3302034,5376657 3302034,4621454 2924432,4621454 2924432,4243734 3679635,4243852 "/><path fill="black" d="M4057237 3866133l-1132805 0 0 -1510524 1132805 0 0 1510524zm-377602 -1132923l-377601 0 0 755203 377601 0 0 -755203z"/><polygon fill="black" points="6695368,5375594 7072969,5375594 7072969,5753313 5940165,5753195 5940165,5375594 6317766,5375594 6317766,4620391 5940165,4620391 5940165,4242671 6695368,4242789 "/><path fill="black" d="M7072969 3865070l-1132804 0 0 -1510524 1132804 0 0 1510524zm-377601 -1132923l-377602 0 0 755321 377602 0 0 -755321z"/><g><polygon fill="black" points="5192876,7267734 5570595,7267734 5570595,7645454 4437673,7645454 4437673,7267734 4815274,7267734 4815274,6512532 4437673,6512532 4437673,6134930 5192876,6134930 "/><path fill="black" d="M4059953 7645454l-1132922 0 0 -1510524 1132922 0 0 1510524zm-377601 -1132922l-377720 0 0 755202 377720 0 0 -755202z"/><path fill="black" d="M7075686 7644391l-1132923 0 0 -1510524 1132923 0 0 1510524zm-377602 -1132922l-377719 0 0 755202 377719 0 0 -755202z"/></g></g></g><text x="0" y="10000015" fill="#000000" font-size="5px" font-weight="bold" font-family="'Helvetica Neue', Helvetica, Arial-Unicode, Arial, Sans-serif">Created by icomoon</text><text x="0" y="10000020" fill="#000000" font-size="5px" font-weight="bold" font-family="'Helvetica Neue', Helvetica, Arial-Unicode, Arial, Sans-serif">from the Noun Project</text></svg>